<mxfile host="app.diagrams.net" agent="Mozilla/5.0 (Windows NT 10.0; Win64; x64) AppleWebKit/537.36 (KHTML, like Gecko) Chrome/140.0.0.0 Safari/537.36 Edg/140.0.0.0" version="28.2.5">
  <diagram name="Page-1" id="xaPSIBocMHSMMr1NDkLI">
    <mxGraphModel dx="1098" dy="606" grid="1" gridSize="10" guides="1" tooltips="1" connect="1" arrows="1" fold="1" page="1" pageScale="1" pageWidth="850" pageHeight="1100" math="0" shadow="0">
      <root>
        <mxCell id="0" />
        <mxCell id="1" parent="0" />
        <mxCell id="2y_MmGDsmUkTw5HNxZUK-3" value="" style="edgeStyle=orthogonalEdgeStyle;rounded=0;orthogonalLoop=1;jettySize=auto;html=1;" edge="1" parent="1" source="2y_MmGDsmUkTw5HNxZUK-1" target="2y_MmGDsmUkTw5HNxZUK-2">
          <mxGeometry relative="1" as="geometry" />
        </mxCell>
        <mxCell id="2y_MmGDsmUkTw5HNxZUK-1" value="Start: Admin logs in" style="rounded=0;whiteSpace=wrap;html=1;" vertex="1" parent="1">
          <mxGeometry x="365" y="10" width="120" height="60" as="geometry" />
        </mxCell>
        <mxCell id="2y_MmGDsmUkTw5HNxZUK-5" value="" style="edgeStyle=orthogonalEdgeStyle;rounded=0;orthogonalLoop=1;jettySize=auto;html=1;" edge="1" parent="1" source="2y_MmGDsmUkTw5HNxZUK-2" target="2y_MmGDsmUkTw5HNxZUK-4">
          <mxGeometry relative="1" as="geometry" />
        </mxCell>
        <mxCell id="2y_MmGDsmUkTw5HNxZUK-2" value="Access &#39;Analytics and Reports&#39;" style="whiteSpace=wrap;html=1;rounded=0;" vertex="1" parent="1">
          <mxGeometry x="365" y="90" width="120" height="60" as="geometry" />
        </mxCell>
        <mxCell id="2y_MmGDsmUkTw5HNxZUK-7" value="" style="edgeStyle=orthogonalEdgeStyle;rounded=0;orthogonalLoop=1;jettySize=auto;html=1;" edge="1" parent="1" source="2y_MmGDsmUkTw5HNxZUK-4" target="2y_MmGDsmUkTw5HNxZUK-6">
          <mxGeometry relative="1" as="geometry" />
        </mxCell>
        <mxCell id="2y_MmGDsmUkTw5HNxZUK-9" value="" style="edgeStyle=orthogonalEdgeStyle;rounded=0;orthogonalLoop=1;jettySize=auto;html=1;" edge="1" parent="1" source="2y_MmGDsmUkTw5HNxZUK-4" target="2y_MmGDsmUkTw5HNxZUK-8">
          <mxGeometry relative="1" as="geometry" />
        </mxCell>
        <mxCell id="2y_MmGDsmUkTw5HNxZUK-11" value="" style="edgeStyle=orthogonalEdgeStyle;rounded=0;orthogonalLoop=1;jettySize=auto;html=1;" edge="1" parent="1" source="2y_MmGDsmUkTw5HNxZUK-4" target="2y_MmGDsmUkTw5HNxZUK-10">
          <mxGeometry relative="1" as="geometry" />
        </mxCell>
        <mxCell id="2y_MmGDsmUkTw5HNxZUK-13" value="" style="edgeStyle=orthogonalEdgeStyle;rounded=0;orthogonalLoop=1;jettySize=auto;html=1;" edge="1" parent="1" source="2y_MmGDsmUkTw5HNxZUK-4" target="2y_MmGDsmUkTw5HNxZUK-12">
          <mxGeometry relative="1" as="geometry" />
        </mxCell>
        <mxCell id="2y_MmGDsmUkTw5HNxZUK-4" value="Select Report Type" style="rhombus;whiteSpace=wrap;html=1;rounded=0;" vertex="1" parent="1">
          <mxGeometry x="370" y="170" width="110" height="80" as="geometry" />
        </mxCell>
        <mxCell id="2y_MmGDsmUkTw5HNxZUK-6" value="Student Progress" style="whiteSpace=wrap;html=1;rounded=0;" vertex="1" parent="1">
          <mxGeometry x="90" y="280" width="120" height="60" as="geometry" />
        </mxCell>
        <mxCell id="2y_MmGDsmUkTw5HNxZUK-8" value="Chatroom activity" style="whiteSpace=wrap;html=1;rounded=0;" vertex="1" parent="1">
          <mxGeometry x="240" y="280" width="120" height="60" as="geometry" />
        </mxCell>
        <mxCell id="2y_MmGDsmUkTw5HNxZUK-15" value="" style="edgeStyle=orthogonalEdgeStyle;rounded=0;orthogonalLoop=1;jettySize=auto;html=1;" edge="1" parent="1" source="2y_MmGDsmUkTw5HNxZUK-10" target="2y_MmGDsmUkTw5HNxZUK-14">
          <mxGeometry relative="1" as="geometry" />
        </mxCell>
        <mxCell id="2y_MmGDsmUkTw5HNxZUK-10" value="AI Performance" style="whiteSpace=wrap;html=1;rounded=0;" vertex="1" parent="1">
          <mxGeometry x="485" y="280" width="120" height="60" as="geometry" />
        </mxCell>
        <mxCell id="2y_MmGDsmUkTw5HNxZUK-12" value="System Usage" style="whiteSpace=wrap;html=1;rounded=0;" vertex="1" parent="1">
          <mxGeometry x="640" y="280" width="120" height="60" as="geometry" />
        </mxCell>
        <mxCell id="2y_MmGDsmUkTw5HNxZUK-20" value="" style="edgeStyle=orthogonalEdgeStyle;rounded=0;orthogonalLoop=1;jettySize=auto;html=1;" edge="1" parent="1" source="2y_MmGDsmUkTw5HNxZUK-14" target="2y_MmGDsmUkTw5HNxZUK-19">
          <mxGeometry relative="1" as="geometry" />
        </mxCell>
        <mxCell id="2y_MmGDsmUkTw5HNxZUK-14" value="Filter and search" style="whiteSpace=wrap;html=1;rounded=0;" vertex="1" parent="1">
          <mxGeometry x="365" y="390" width="120" height="60" as="geometry" />
        </mxCell>
        <mxCell id="2y_MmGDsmUkTw5HNxZUK-16" value="" style="endArrow=classic;html=1;rounded=0;exitX=0.5;exitY=1;exitDx=0;exitDy=0;entryX=0.5;entryY=0;entryDx=0;entryDy=0;" edge="1" parent="1" source="2y_MmGDsmUkTw5HNxZUK-8" target="2y_MmGDsmUkTw5HNxZUK-14">
          <mxGeometry width="50" height="50" relative="1" as="geometry">
            <mxPoint x="330" y="370" as="sourcePoint" />
            <mxPoint x="450" y="290" as="targetPoint" />
            <Array as="points">
              <mxPoint x="300" y="370" />
              <mxPoint x="425" y="370" />
            </Array>
          </mxGeometry>
        </mxCell>
        <mxCell id="2y_MmGDsmUkTw5HNxZUK-17" value="" style="endArrow=classic;html=1;rounded=0;exitX=0.5;exitY=1;exitDx=0;exitDy=0;entryX=0;entryY=0.5;entryDx=0;entryDy=0;" edge="1" parent="1" source="2y_MmGDsmUkTw5HNxZUK-6" target="2y_MmGDsmUkTw5HNxZUK-14">
          <mxGeometry width="50" height="50" relative="1" as="geometry">
            <mxPoint x="400" y="340" as="sourcePoint" />
            <mxPoint x="450" y="290" as="targetPoint" />
            <Array as="points">
              <mxPoint x="150" y="420" />
            </Array>
          </mxGeometry>
        </mxCell>
        <mxCell id="2y_MmGDsmUkTw5HNxZUK-18" value="" style="endArrow=classic;html=1;rounded=0;exitX=0.5;exitY=1;exitDx=0;exitDy=0;entryX=1;entryY=0.5;entryDx=0;entryDy=0;" edge="1" parent="1" source="2y_MmGDsmUkTw5HNxZUK-12" target="2y_MmGDsmUkTw5HNxZUK-14">
          <mxGeometry width="50" height="50" relative="1" as="geometry">
            <mxPoint x="400" y="340" as="sourcePoint" />
            <mxPoint x="450" y="290" as="targetPoint" />
            <Array as="points">
              <mxPoint x="700" y="420" />
            </Array>
          </mxGeometry>
        </mxCell>
        <mxCell id="2y_MmGDsmUkTw5HNxZUK-22" value="" style="edgeStyle=orthogonalEdgeStyle;rounded=0;orthogonalLoop=1;jettySize=auto;html=1;" edge="1" parent="1" source="2y_MmGDsmUkTw5HNxZUK-19" target="2y_MmGDsmUkTw5HNxZUK-21">
          <mxGeometry relative="1" as="geometry" />
        </mxCell>
        <mxCell id="2y_MmGDsmUkTw5HNxZUK-19" value="Generate visual Report" style="shape=parallelogram;perimeter=parallelogramPerimeter;whiteSpace=wrap;html=1;fixedSize=1;rounded=0;" vertex="1" parent="1">
          <mxGeometry x="365" y="480" width="120" height="60" as="geometry" />
        </mxCell>
        <mxCell id="2y_MmGDsmUkTw5HNxZUK-24" value="" style="edgeStyle=orthogonalEdgeStyle;rounded=0;orthogonalLoop=1;jettySize=auto;html=1;" edge="1" parent="1" source="2y_MmGDsmUkTw5HNxZUK-21" target="2y_MmGDsmUkTw5HNxZUK-23">
          <mxGeometry relative="1" as="geometry" />
        </mxCell>
        <mxCell id="2y_MmGDsmUkTw5HNxZUK-21" value="Analyze Key Metrics" style="whiteSpace=wrap;html=1;rounded=0;" vertex="1" parent="1">
          <mxGeometry x="365" y="570" width="120" height="60" as="geometry" />
        </mxCell>
        <mxCell id="2y_MmGDsmUkTw5HNxZUK-26" value="Yes" style="edgeStyle=orthogonalEdgeStyle;rounded=0;orthogonalLoop=1;jettySize=auto;html=1;" edge="1" parent="1" source="2y_MmGDsmUkTw5HNxZUK-23" target="2y_MmGDsmUkTw5HNxZUK-25">
          <mxGeometry relative="1" as="geometry" />
        </mxCell>
        <mxCell id="2y_MmGDsmUkTw5HNxZUK-28" value="No" style="edgeStyle=orthogonalEdgeStyle;rounded=0;orthogonalLoop=1;jettySize=auto;html=1;" edge="1" parent="1" source="2y_MmGDsmUkTw5HNxZUK-23" target="2y_MmGDsmUkTw5HNxZUK-27">
          <mxGeometry relative="1" as="geometry" />
        </mxCell>
        <mxCell id="2y_MmGDsmUkTw5HNxZUK-23" value="Improvements?" style="rhombus;whiteSpace=wrap;html=1;rounded=0;" vertex="1" parent="1">
          <mxGeometry x="360" y="650" width="130" height="80" as="geometry" />
        </mxCell>
        <mxCell id="2y_MmGDsmUkTw5HNxZUK-25" value="Flag issue" style="whiteSpace=wrap;html=1;rounded=0;" vertex="1" parent="1">
          <mxGeometry x="520" y="720" width="120" height="60" as="geometry" />
        </mxCell>
        <mxCell id="2y_MmGDsmUkTw5HNxZUK-31" value="" style="edgeStyle=orthogonalEdgeStyle;rounded=0;orthogonalLoop=1;jettySize=auto;html=1;" edge="1" parent="1" source="2y_MmGDsmUkTw5HNxZUK-27" target="2y_MmGDsmUkTw5HNxZUK-30">
          <mxGeometry relative="1" as="geometry" />
        </mxCell>
        <mxCell id="2y_MmGDsmUkTw5HNxZUK-27" value="Export Report" style="whiteSpace=wrap;html=1;rounded=0;" vertex="1" parent="1">
          <mxGeometry x="365" y="820" width="120" height="60" as="geometry" />
        </mxCell>
        <mxCell id="2y_MmGDsmUkTw5HNxZUK-29" value="" style="endArrow=classic;html=1;rounded=0;exitX=0.5;exitY=1;exitDx=0;exitDy=0;entryX=1;entryY=0.617;entryDx=0;entryDy=0;entryPerimeter=0;" edge="1" parent="1" source="2y_MmGDsmUkTw5HNxZUK-25" target="2y_MmGDsmUkTw5HNxZUK-27">
          <mxGeometry width="50" height="50" relative="1" as="geometry">
            <mxPoint x="400" y="840" as="sourcePoint" />
            <mxPoint x="450" y="790" as="targetPoint" />
            <Array as="points">
              <mxPoint x="580" y="857" />
            </Array>
          </mxGeometry>
        </mxCell>
        <mxCell id="2y_MmGDsmUkTw5HNxZUK-30" value="End" style="whiteSpace=wrap;html=1;rounded=0;" vertex="1" parent="1">
          <mxGeometry x="365" y="920" width="120" height="60" as="geometry" />
        </mxCell>
      </root>
    </mxGraphModel>
  </diagram>
</mxfile>
